<svg width="130" height="74" viewBox="0 0 130 74" fill="none" xmlns="http://www.w3.org/2000/svg">
<path d="M69.3298 51.1559H71.8956C71.8956 56.2875 71.8956 61.419 71.8956 66.5506H69.3298C69.3298 61.419 69.3298 56.2875 69.3298 51.1559ZM59.9219 50.7817C58.2114 50.7817 56.6612 51.3697 55.4318 52.3853V51.1024H52.866C52.866 56.234 52.866 61.3656 52.866 66.4972H55.4318C55.4318 63.6107 55.4318 60.7241 55.4318 57.8376C55.4318 55.3787 57.463 53.3475 59.9219 53.3475C62.3808 53.3475 64.412 55.3787 64.412 57.8376C64.412 60.7241 64.412 63.6107 64.412 66.4972H66.9778C66.9778 63.6107 66.9778 60.7241 66.9778 57.8376C66.9778 53.9889 63.824 50.7817 59.9219 50.7817ZM47.7344 51.1559H50.3002C50.3002 56.0737 50.3002 61.0449 50.3002 65.9626C50.3002 70.3993 46.4515 73.9807 42.2821 73.9807C38.4334 73.9807 35.6538 71.6287 34.6382 68.4215H37.4178C38.273 70.1855 39.9301 71.4149 42.3355 71.4149C45.0617 71.4149 47.7878 68.9561 47.7878 65.9626V64.7332C46.3446 66.0695 44.4202 66.8713 42.3355 66.8713C37.8989 66.8713 34.3174 63.2899 34.3174 58.8533C34.3174 54.4166 37.8989 50.8352 42.3355 50.8352C44.4202 50.8352 46.3446 51.637 47.7878 52.9733V51.1559H47.7344ZM47.7344 58.8533C47.7344 55.8598 45.2755 53.401 42.2821 53.401C39.2887 53.401 36.8298 55.8598 36.8298 58.8533C36.8298 61.8467 39.2887 64.3056 42.2821 64.3056C45.2755 64.3056 47.7344 61.8467 47.7344 58.8533ZM8.01809 53.3475C10.2097 53.3475 12.0806 54.6304 12.9893 56.5013H15.7155C14.6998 53.1871 11.653 50.7817 8.01809 50.7817C3.58141 50.7817 0 54.3631 0 58.7998C0 63.2365 3.58141 66.8179 8.01809 66.8179C11.653 66.8179 14.6998 64.4125 15.7155 61.0983H12.9893C12.1341 62.9692 10.2097 64.2521 8.01809 64.2521C5.02467 64.2521 2.5658 61.7932 2.5658 58.7998C2.5658 55.8064 5.02467 53.3475 8.01809 53.3475ZM33.0346 58.8533C33.0346 63.2899 29.4531 66.8713 25.0165 66.8713C20.5798 66.8713 16.9984 63.2899 16.9984 58.8533C16.9984 54.4166 20.5798 50.8352 25.0165 50.8352C29.4531 50.8352 33.0346 54.4166 33.0346 58.8533ZM30.4688 58.8533C30.4688 55.8598 28.0099 53.401 25.0165 53.401C22.023 53.401 19.5641 55.8598 19.5641 58.8533C19.5641 61.8467 22.023 64.3056 25.0165 64.3056C28.0099 64.3056 30.4688 61.8467 30.4688 58.8533ZM114.338 50.7817C112.627 50.7817 111.077 51.3697 109.848 52.3853V51.1024H107.282C107.282 56.234 107.282 61.3656 107.282 66.4972H109.848C109.848 63.6107 109.848 60.7241 109.848 57.8376C109.848 55.3787 111.879 53.3475 114.338 53.3475C116.797 53.3475 118.828 55.3787 118.828 57.8376C118.828 60.7241 118.828 63.6107 118.828 66.4972H121.394C121.394 63.6107 121.394 60.7241 121.394 57.8376C121.394 53.9889 118.24 50.7817 114.338 50.7817ZM102.151 51.1559H104.716C104.716 56.2875 104.716 61.419 104.716 66.5506H102.151V64.7332C100.707 66.0695 98.7829 66.8713 96.6982 66.8713C92.2615 66.8713 88.6801 63.2899 88.6801 58.8533C88.6801 54.4166 92.2615 50.8352 96.6982 50.8352C98.7829 50.8352 100.707 51.637 102.151 52.9733V51.1559ZM102.151 58.8533C102.151 55.8598 99.6916 53.401 96.6982 53.401C93.7048 53.401 91.2459 55.8598 91.2459 58.8533C91.2459 61.8467 93.7048 64.3056 96.6982 64.3056C99.7451 64.3056 102.151 61.8467 102.151 58.8533ZM130 53.7217V51.1559H126.151V46.933H123.586V51.1559V53.7217V61.4191C123.586 64.2521 125.884 66.5506 128.717 66.5506H130V63.9848H128.717C127.327 63.9848 126.151 62.8089 126.151 61.4191V53.7217H130ZM70.6127 45.5967C69.6505 45.5967 68.9021 46.345 68.9021 47.3072C68.9021 48.2694 69.6505 49.0177 70.6127 49.0177C71.5748 49.0177 72.3232 48.2694 72.3232 47.3072C72.3232 46.345 71.5214 45.5967 70.6127 45.5967ZM87.2903 51.1559C83.014 51.1559 78.7377 51.1559 74.4614 51.1559V53.7217C77.6151 53.7217 80.7689 53.7217 83.9762 53.7217L74.4614 63.9848V66.5506C78.7377 66.5506 83.014 66.5506 87.2903 66.5506V63.9848C84.1365 63.9848 80.9293 63.9848 77.7755 63.9848L87.2903 53.7217V51.1559Z" fill="#002159"/>
<path d="M69.9696 29.0255L56.2319 37.2039L43.9375 19.5641H63.2344L69.9696 29.0255ZM63.2344 18.5485H43.9375L56.2319 0.855258L69.9696 9.03371L63.2344 18.5485ZM75.7961 38.1127H56.8199L88.7319 19.0831L75.7961 38.1127ZM88.7854 19.0296L56.8733 0H75.8495L88.7854 19.0296Z" fill="#002159"/>
</svg>
